<svg width="1018" height="1054" viewBox="0 0 1018 1054" fill="none" xmlns="http://www.w3.org/2000/svg">
<path d="M235.181 646.393C171.93 606.524 188.64 486.186 204.901 431H792V1053.53C606.955 1058.26 516.955 1026.22 495.086 1009.61C437.217 986.63 450.787 848.272 464.806 789.144C471.535 739.139 443.778 712.278 411.816 697.919C372.283 686.938 265.742 662.724 235.181 646.393Z" fill="#0F1640"/>
<path d="M646 950.5C646 964.583 634.807 976 621 976C607.193 976 596 964.583 596 950.5C596 936.417 607.193 925 621 925C634.807 925 646 936.417 646 950.5ZM601.389 950.5C601.389 961.548 610.169 970.504 621 970.504C631.831 970.504 640.611 961.548 640.611 950.5C640.611 939.452 631.831 930.496 621 930.496C610.169 930.496 601.389 939.452 601.389 950.5Z" fill="#144B6F"/>
<path d="M609.782 353.28C676.97 379.96 797.094 359.72 840.868 385.48C884.642 410.32 852.066 481.16 817.454 542.8C783.86 605.36 749.248 660.56 697.33 681.72C645.412 702.88 577.206 690 501.874 699.2C425.524 708.4 342.048 739.68 263.662 726.8C186.294 713 112.998 655.04 114.016 591.56C115.034 528.08 188.33 458.16 234.14 393.76C279.95 330.28 296.238 273.24 336.958 238.28C377.678 204.24 443.848 192.28 484.568 223.56C525.288 253.92 541.576 326.6 609.782 353.28Z" fill="url(#paint0_linear_450_780)"/>
<g clip-path="url(#clip0_450_780)">
<path d="M292.416 453.292L297.316 448.384L300.109 451.183C300.667 451.741 300.98 452.498 300.98 453.287C300.98 454.077 300.667 454.834 300.109 455.392L299.419 456.082C299.143 456.359 298.815 456.579 298.454 456.729C298.093 456.879 297.705 456.956 297.314 456.956C296.923 456.956 296.536 456.879 296.175 456.729C295.814 456.579 295.486 456.359 295.21 456.082L292.416 453.292ZM300.102 438.582L299.409 437.892C298.85 437.334 298.094 437.021 297.304 437.021C296.515 437.021 295.758 437.334 295.2 437.892L291.001 442.101L286.792 437.892C286.234 437.334 285.477 437.021 284.687 437.021C283.898 437.021 283.141 437.334 282.583 437.892L281.893 438.582C281.335 439.14 281.022 439.897 281.022 440.686C281.022 441.475 281.335 442.232 281.893 442.791L286.102 446.999L281.893 451.208C281.335 451.766 281.022 452.523 281.022 453.312C281.022 454.102 281.335 454.859 281.893 455.417L282.583 456.107C283.141 456.665 283.898 456.978 284.687 456.978C285.477 456.978 286.234 456.665 286.792 456.107L300.109 442.79C300.667 442.232 300.98 441.475 300.98 440.686C300.98 439.896 300.667 439.139 300.109 438.581L300.102 438.582Z" fill="#144B6F"/>
</g>
<path fill-rule="evenodd" clip-rule="evenodd" d="M544.262 507.29L508.35 486.556L544.262 465.822V507.29ZM540.377 500.445L516.595 486.714L540.377 472.983V500.445Z" fill="#144B6F"/>
<path d="M976 701.5C976 814.995 883.771 907 770 907C656.229 907 564 814.995 564 701.5C564 588.005 656.229 496 770 496C883.771 496 976 588.005 976 701.5ZM608.402 701.5C608.402 790.531 680.752 862.705 770 862.705C859.248 862.705 931.598 790.531 931.598 701.5C931.598 612.469 859.248 540.295 770 540.295C680.752 540.295 608.402 612.469 608.402 701.5Z" fill="#342856"/>
<defs>
<linearGradient id="paint0_linear_450_780" x1="114.006" y1="729.867" x2="607.05" y2="26.6884" gradientUnits="userSpaceOnUse">
<stop stop-color="#13224D"/>
<stop offset="1" stop-color="#13224D"/>
</linearGradient>
<clipPath id="clip0_450_780">
<rect width="20" height="20" fill="white" transform="translate(281 437)"/>
</clipPath>
</defs>
</svg>
