<svg width="1512" height="268" viewBox="0 0 1512 268" fill="none" xmlns="http://www.w3.org/2000/svg">
<path d="M-334 176.664L-274 166.625C-214 156.338 -94 136.628 26 141.432C146 146.483 266 176.664 386 196.806C506 216.701 626 227.172 746 186.704C866 146.483 986 55.9391 1106 30.8086C1226 5.4316 1346 46.084 1466 71.0298C1586 95.9756 1706 106.447 1826 116.302C1946 126.157 2066 136.628 2186 156.523C2306 176.664 2426 206.846 2546 221.936C2666 237.027 2786 237.027 2906 191.755C3026 146.483 3146 55.9391 3266 25.7578C3386 -4.42352 3506 25.7578 3626 40.8485C3746 55.9391 3866 55.9391 3986 60.9899C4106 65.7943 4226 76.2653 4346 65.979C4466 55.9391 4586 25.7578 4706 40.8485C4826 55.9391 4946 116.302 5066 146.483C5186 176.664 5306 176.664 5426 156.523C5546 136.628 5666 95.9756 5786 101.211C5906 106.447 6026 156.338 6146 146.483C6266 136.628 6386 65.7943 6506 45.8992C6626 25.7578 6746 55.9391 6866 50.8884C6986 46.084 7106 5.43161 7226 0.627233C7346 -4.42352 7466 25.7578 7586 50.8884C7706 76.2653 7826 95.9756 7946 96.1604C8066 95.9756 8186 76.2653 8246 65.979L8306 55.9391V267.208H8246C8186 267.208 8066 267.208 7946 267.208C7826 267.208 7706 267.208 7586 267.208C7466 267.208 7346 267.208 7226 267.208C7106 267.208 6986 267.208 6866 267.208C6746 267.208 6626 267.208 6506 267.208C6386 267.208 6266 267.208 6146 267.208C6026 267.208 5906 267.208 5786 267.208C5666 267.208 5546 267.208 5426 267.208C5306 267.208 5186 267.208 5066 267.208C4946 267.208 4826 267.208 4706 267.208C4586 267.208 4466 267.208 4346 267.208C4226 267.208 4106 267.208 3986 267.208C3866 267.208 3746 267.208 3626 267.208C3506 267.208 3386 267.208 3266 267.208C3146 267.208 3026 267.208 2906 267.208C2786 267.208 2666 267.208 2546 267.208C2426 267.208 2306 267.208 2186 267.208C2066 267.208 1946 267.208 1826 267.208C1706 267.208 1586 267.208 1466 267.208C1346 267.208 1226 267.208 1106 267.208C986 267.208 866 267.208 746 267.208C626 267.208 506 267.208 386 267.208C266 267.208 146 267.208 26 267.208C-94 267.208 -214 267.208 -274 267.208H-334V176.664Z" fill="url(#paint0_linear_423_509)"/>
<defs>
<linearGradient id="paint0_linear_423_509" x1="-334" y1="267.208" x2="-334" y2="0.0683594" gradientUnits="userSpaceOnUse">
<stop stop-color="#0F1640"/>
<stop offset="1" stop-color="#0F1640"/>
</linearGradient>
</defs>
</svg>
