<svg width="396" height="982" viewBox="0 0 396 982" fill="none" xmlns="http://www.w3.org/2000/svg">
<path d="M212.896 1327.01L198.079 1266.63C182.863 1206.24 153.829 1085.49 164.584 965.714C175.738 845.952 227.68 727.196 263.327 608.038C298.574 488.87 318.526 369.326 255.802 247.743C193.479 126.171 49.4805 2.58505 11.6497 -118.384C-26.581 -239.363 42.3558 -357.7 85.8004 -476.666C129.245 -595.631 149.197 -715.176 168.149 -834.745C187.1 -954.314 207.052 -1073.86 242.299 -1193.03C277.946 -1312.18 329.888 -1430.94 357.337 -1550.3C384.787 -1669.66 387.744 -1789.62 317.223 -1911.4C246.702 -2033.17 102.703 -2156.76 56.6751 -2277.93C10.6468 -2399.1 62.5887 -2517.86 90.0381 -2637.22C117.487 -2756.58 120.444 -2876.54 131.599 -2996.3C142.353 -3116.07 162.305 -3235.62 148.567 -3355.99C135.228 -3476.36 89.2001 -3597.53 116.65 -3716.89C144.099 -3836.25 245.026 -3953.8 296.968 -4072.55C348.91 -4191.31 351.867 -4311.27 322.133 -4432.04C292.8 -4552.8 229.777 -4674.39 241.231 -4794.15C252.685 -4913.9 336.618 -5031.87 323.579 -5152.23C310.541 -5272.58 198.533 -5395.38 169.199 -5516.14C139.466 -5636.91 191.408 -5755.67 186.167 -5875.83C181.327 -5995.99 118.303 -6117.58 113.463 -6237.73C108.222 -6357.9 160.164 -6476.65 203.908 -6595.61C248.053 -6714.56 283 -6833.74 286.257 -6953.69C288.913 -7073.66 259.88 -7194.42 244.663 -7254.81L229.847 -7315.19L572.743 -7306.74L571.264 -7246.76C569.786 -7186.78 566.829 -7066.81 563.872 -6946.85C560.915 -6826.89 557.959 -6706.92 555.002 -6586.96C552.045 -6467 549.088 -6347.03 546.131 -6227.07C543.174 -6107.11 540.218 -5987.14 537.261 -5867.18C534.304 -5747.21 531.347 -5627.25 528.39 -5507.29C525.433 -5387.32 522.477 -5267.36 519.52 -5147.4C516.563 -5027.43 513.606 -4907.47 510.649 -4787.51C507.693 -4667.54 504.736 -4547.58 501.779 -4427.62C498.822 -4307.65 495.865 -4187.69 492.908 -4067.72C489.952 -3947.76 486.995 -3827.8 484.038 -3707.83C481.081 -3587.87 478.124 -3467.91 475.167 -3347.94C472.211 -3227.98 469.254 -3108.02 466.297 -2988.05C463.34 -2868.09 460.383 -2748.13 457.427 -2628.16C454.47 -2508.2 451.513 -2388.23 448.556 -2268.27C445.599 -2148.31 442.642 -2028.34 439.686 -1908.38C436.729 -1788.42 433.772 -1668.45 430.815 -1548.49C427.858 -1428.53 424.901 -1308.56 421.945 -1188.6C418.988 -1068.64 416.031 -948.672 413.074 -828.708C410.117 -708.745 407.16 -588.781 404.204 -468.818C401.247 -348.854 398.29 -228.89 395.333 -108.927C392.376 11.0366 389.42 131 386.463 250.964C383.506 370.927 380.549 490.891 377.592 610.854C374.635 730.818 371.679 850.782 368.722 970.745C365.765 1090.71 362.808 1210.67 361.33 1270.65L359.851 1330.64L212.896 1327.01Z" fill="url(#paint0_linear_463_40)"/>
<defs>
<linearGradient id="paint0_linear_463_40" x1="359.851" y1="1330.64" x2="-73.7244" y2="1319.95" gradientUnits="userSpaceOnUse">
<stop stop-color="#0F1640"/>
<stop offset="1" stop-color="#0F1640"/>
</linearGradient>
</defs>
</svg>
