<svg width="51" height="51" viewBox="0 0 51 51" fill="none" xmlns="http://www.w3.org/2000/svg">
<path d="M4.66675 25.5C4.6678 20.9325 6.16984 16.4919 8.94172 12.8616C11.7136 9.23136 15.6017 6.61263 20.0076 5.40845C24.4135 4.20428 29.093 4.48139 33.326 6.19716C37.559 7.91292 41.1109 10.9722 43.4349 14.9043C45.759 18.8363 46.7264 23.4231 46.1884 27.9588C45.6503 32.4945 43.6366 36.7277 40.4572 40.0069C37.2777 43.2861 33.1087 45.4296 28.5918 46.1074C24.0748 46.7852 19.4603 45.9598 15.4584 43.7583L7.35842 46.225C6.99713 46.335 6.61272 46.3448 6.2463 46.2532C5.87989 46.1617 5.54526 45.9722 5.2782 45.7052C5.01114 45.4381 4.8217 45.1035 4.73014 44.7371C4.63859 44.3707 4.64836 43.9862 4.75842 43.625L7.22508 35.5125C5.54493 32.4428 4.66509 28.9994 4.66675 25.5ZM17.1667 23.4166C17.1667 23.9692 17.3862 24.4991 17.7769 24.8898C18.1676 25.2805 18.6975 25.5 19.2501 25.5H31.7501C32.3026 25.5 32.8325 25.2805 33.2232 24.8898C33.6139 24.4991 33.8334 23.9692 33.8334 23.4166C33.8334 22.8641 33.6139 22.3342 33.2232 21.9435C32.8325 21.5528 32.3026 21.3333 31.7501 21.3333H19.2501C18.6975 21.3333 18.1676 21.5528 17.7769 21.9435C17.3862 22.3342 17.1667 22.8641 17.1667 23.4166ZM19.2501 29.6666C18.6975 29.6666 18.1676 29.8861 17.7769 30.2768C17.3862 30.6675 17.1667 31.1974 17.1667 31.75C17.1667 32.3025 17.3862 32.8324 17.7769 33.2231C18.1676 33.6138 18.6975 33.8333 19.2501 33.8333H27.5834C28.136 33.8333 28.6659 33.6138 29.0566 33.2231C29.4473 32.8324 29.6667 32.3025 29.6667 31.75C29.6667 31.1974 29.4473 30.6675 29.0566 30.2768C28.6659 29.8861 28.136 29.6666 27.5834 29.6666H19.2501Z" fill="black"/>
</svg>
