<svg width="40" height="40" viewBox="0 0 40 40" fill="none" xmlns="http://www.w3.org/2000/svg">
<g clip-path="url(#clip0_438_75)">
<path fill-rule="evenodd" clip-rule="evenodd" d="M20 3.3335C23.9782 3.3335 27.7936 4.91385 30.6066 7.72689C33.4196 10.5399 35 14.3552 35 18.3335C35 23.4568 32.2067 27.6502 29.2633 30.6585C27.7925 32.145 26.188 33.4929 24.47 34.6852L23.76 35.1685L23.4267 35.3902L22.7983 35.7902L22.2383 36.1318L21.545 36.5352C21.0742 36.8031 20.5417 36.9441 20 36.9441C19.4583 36.9441 18.9258 36.8031 18.455 36.5352L17.7617 36.1318L16.895 35.5985L16.575 35.3902L15.8917 34.9352C14.0383 33.6807 12.3118 32.2484 10.7367 30.6585C7.79333 27.6485 5 23.4568 5 18.3335C5 14.3552 6.58035 10.5399 9.3934 7.72689C12.2064 4.91385 16.0218 3.3335 20 3.3335ZM20 6.66683C16.9058 6.66683 13.9383 7.89599 11.7504 10.0839C9.5625 12.2718 8.33333 15.2393 8.33333 18.3335C8.33333 22.2035 10.4533 25.6002 13.1183 28.3268C14.2644 29.4867 15.5029 30.5513 16.8217 31.5102L17.585 32.0535C17.8317 32.2252 18.0683 32.3852 18.2967 32.5335L18.9467 32.9502L19.5183 33.2985L20 33.5802L20.7583 33.1318L21.37 32.7485C21.695 32.5418 22.045 32.3102 22.415 32.0535L23.1783 31.5102C24.4971 30.5513 25.7356 29.4867 26.8817 28.3268C29.5467 25.6018 31.6667 22.2035 31.6667 18.3335C31.6667 15.2393 30.4375 12.2718 28.2496 10.0839C26.0617 7.89599 23.0942 6.66683 20 6.66683ZM20 11.6668C21.7681 11.6668 23.4638 12.3692 24.714 13.6195C25.9643 14.8697 26.6667 16.5654 26.6667 18.3335C26.6667 20.1016 25.9643 21.7973 24.714 23.0475C23.4638 24.2978 21.7681 25.0002 20 25.0002C18.2319 25.0002 16.5362 24.2978 15.286 23.0475C14.0357 21.7973 13.3333 20.1016 13.3333 18.3335C13.3333 16.5654 14.0357 14.8697 15.286 13.6195C16.5362 12.3692 18.2319 11.6668 20 11.6668ZM20 15.0002C19.1159 15.0002 18.2681 15.3514 17.643 15.9765C17.0179 16.6016 16.6667 17.4494 16.6667 18.3335C16.6667 19.2176 17.0179 20.0654 17.643 20.6905C18.2681 21.3156 19.1159 21.6668 20 21.6668C20.8841 21.6668 21.7319 21.3156 22.357 20.6905C22.9821 20.0654 23.3333 19.2176 23.3333 18.3335C23.3333 17.4494 22.9821 16.6016 22.357 15.9765C21.7319 15.3514 20.8841 15.0002 20 15.0002Z" fill="#6B6E77"/>
</g>
<defs>
<clipPath id="clip0_438_75">
<rect width="40" height="40" fill="white"/>
</clipPath>
</defs>
</svg>
